<?xml version="1.0" encoding="iso-8859-1"?>
<!-- Generator: Adobe Illustrator 19.0.0, SVG Export Plug-In . SVG Version: 6.00 Build 0)  -->
<svg version="1.1" id="Capa_1" xmlns="http://www.w3.org/2000/svg" xmlns:xlink="http://www.w3.org/1999/xlink" x="0px" y="0px"
	 viewBox="0 0 512 512" style="enable-background:new 0 0 512 512;" xml:space="preserve">
<circle style="fill:#36930F;" cx="256" cy="256" r="256"/>
<path style="fill:#2A7507;" d="M396.581,119.734c0.001,0.001,0.003,0.001,0.005,0.002c-1.58-1.641-3.197-3.245-4.833-4.83
	l-0.795-0.795l-0.014,0.014C355.901,80.546,308.367,59.9,256,59.9c-55.229,0-105.092,22.955-140.586,59.836
	c0.007-0.003,0.015-0.006,0.022-0.008l-0.145,0.145c-0.003-0.001-0.005-0.002-0.008-0.003c-0.054,0.057-0.106,0.115-0.161,0.171
	l-0.083,0.083l0.003,0.003C81.509,155.163,60.9,202.672,60.9,255c0,56.496,24.023,107.373,62.399,143.002L236.567,511.27
	c6.415,0.482,12.895,0.73,19.433,0.73c141.385,0,256-114.615,256-256c0-7.337-0.326-14.598-0.931-21.779L396.581,119.734z"/>
<g>
	<path style="fill:#FFFFFF;" d="M396.716,119.869c-33.561,13.105-65.269,32.708-93.371,53.322
		c23.929,22.297,41.728,44.237,58.023,74.102c22.625,42.432,38.452,96.8,35.448,142.593c-8.609-9.475-74.528-99.469-89.101-117.971
		c-22.146-27.579-40.412-47.165-51.716-57.948c-9.262,8.836-30.957,32.098-51.716,57.948
		c-43.915,55.756-73.888,101.227-89.101,117.971c-2.631-40.193,11.075-101.617,40.461-151.237
		c18.348-30.367,34.257-47.977,53.01-65.458c-28.078-20.6-62.509-41.28-93.37-53.322C81.606,154.93,60.9,202.545,60.9,255
		c0,107.751,87.349,195.1,195.1,195.1S451.1,362.751,451.1,255C451.1,202.545,430.394,154.93,396.716,119.869z"/>
	<path style="fill:#FFFFFF;" d="M256,139.166c56.252-30.482,111.396-31.375,140.586-19.43C361.092,82.854,311.229,59.9,256,59.9
		s-105.092,22.955-140.586,59.836C157.572,102.484,215.969,117.467,256,139.166z"/>
</g>
<g>
</g>
<g>
</g>
<g>
</g>
<g>
</g>
<g>
</g>
<g>
</g>
<g>
</g>
<g>
</g>
<g>
</g>
<g>
</g>
<g>
</g>
<g>
</g>
<g>
</g>
<g>
</g>
<g>
</g>
</svg>
